<svg width="375" height="220" viewBox="0 0 375 220" fill="none" xmlns="http://www.w3.org/2000/svg">
<path fill-rule="evenodd" clip-rule="evenodd" d="M-149.934 51.4184L-137.235 63.5122C-124.973 75.6065 -100.013 99.7945 -75.0997 87.6516C-49.7494 75.5081 -24.884 27.0342 0.0210463 8.83607C24.9261 -9.36202 49.8707 2.71569 74.847 39.014C99.8234 75.3124 125.269 135.831 150.205 141.853C175.142 147.876 200.008 99.402 224.905 75.1488C249.802 50.8955 274.731 50.8629 300.105 56.8849C325.041 62.9074 349.986 74.9851 362.24 81.0243L374.931 87.0629L375.121 232.387L362.438 232.403C350.192 232.419 325.263 232.452 300.334 232.485C274.968 232.518 250.039 232.55 225.111 232.583C200.182 232.616 175.253 232.648 150.324 232.681C125.395 232.713 100.029 232.747 75.1005 232.779C50.1717 232.812 25.2429 232.844 0.314127 232.877C-24.6147 232.91 -49.5435 232.942 -74.9096 232.975C-99.8384 233.008 -124.767 233.041 -137.013 233.057L-149.696 233.073L-149.934 51.4184Z" fill="#545454"/>
<path fill-rule="evenodd" clip-rule="evenodd" d="M-149.934 63.7319L-137.235 75.8256C-124.973 87.9199 -100.013 112.108 -75.0997 99.965C-49.7494 87.8215 -24.884 39.3476 0.0210463 21.1496C24.9261 2.95146 49.8707 15.0292 74.847 51.3275C99.8234 87.6259 125.269 148.144 150.205 154.167C175.142 160.189 200.008 111.716 224.905 87.4622C249.802 63.209 274.731 63.1764 300.105 69.1984C325.041 75.2209 349.986 87.2986 362.24 93.3378L374.931 99.3763L375.121 244.7L362.438 244.717C350.192 244.733 325.263 244.765 300.334 244.798C274.968 244.831 250.039 244.864 225.111 244.896C200.182 244.929 175.253 244.962 150.324 244.994C125.395 245.027 100.029 245.06 75.1005 245.093C50.1717 245.125 25.2429 245.158 0.314127 245.19C-24.6147 245.223 -49.5435 245.256 -74.9096 245.289C-99.8384 245.322 -124.767 245.354 -137.013 245.37L-149.696 245.387L-149.934 63.7319Z" fill="url(#paint0_linear)"/>
<defs>
<linearGradient id="paint0_linear" x1="428.623" y1="63.4739" x2="-43.1148" y2="242.688" gradientUnits="userSpaceOnUse">
<stop stop-color="#5B86E5"/>
<stop offset="1" stop-color="#36D1DC"/>
</linearGradient>
</defs>
</svg>
