<svg width="1440" height="328" viewBox="0 0 1440 328" fill="none" xmlns="http://www.w3.org/2000/svg">
<path fill-rule="evenodd" clip-rule="evenodd" d="M-142.729 80.6857L-90.2288 99.6596C-39.5367 118.634 63.6556 156.583 166.654 137.531C271.46 118.478 374.265 42.4252 477.231 13.873C580.197 -14.6792 683.324 4.26924 786.581 61.2182C889.838 118.167 995.033 213.116 1098.13 222.564C1201.22 232.013 1304.03 155.96 1406.96 117.907C1509.9 79.8549 1612.96 79.8031 1717.86 89.2505C1820.96 98.6988 1924.08 117.647 1974.74 127.122L2027.21 136.596L2027.99 364.599L1975.55 364.625C1924.93 364.651 1821.86 364.703 1718.8 364.754C1613.93 364.807 1510.87 364.859 1407.8 364.911C1304.74 364.963 1201.68 365.014 1098.61 365.066C995.55 365.118 890.679 365.171 787.616 365.223C684.553 365.274 581.49 365.326 478.427 365.378C375.364 365.43 272.301 365.482 167.43 365.534C64.3671 365.586 -38.6959 365.638 -89.3234 365.663L-141.759 365.69L-142.729 80.6857Z" fill="#545454"/>
<path fill-rule="evenodd" clip-rule="evenodd" d="M-142.729 100.005L-90.2288 118.979C-39.5367 137.954 63.6556 175.903 166.654 156.85C271.46 137.797 374.265 61.7446 477.231 33.1923C580.197 4.64012 683.324 23.5886 786.581 80.5376C889.838 137.487 995.033 232.435 1098.13 241.884C1201.22 251.332 1304.03 175.279 1406.96 137.227C1509.9 99.1742 1612.96 99.1224 1717.86 108.57C1820.96 118.018 1924.08 136.967 1974.74 146.441L2027.21 155.915L2027.99 383.918L1975.55 383.945C1924.93 383.97 1821.86 384.022 1718.8 384.074C1613.93 384.126 1510.87 384.178 1407.8 384.23C1304.74 384.282 1201.68 384.334 1098.61 384.386C995.55 384.437 890.679 384.49 787.616 384.542C684.553 384.594 581.49 384.646 478.427 384.697C375.364 384.749 272.301 384.801 167.43 384.854C64.3671 384.905 -38.6959 384.957 -89.3234 384.983L-141.759 385.009L-142.729 100.005Z" fill="url(#paint0_linear)"/>
<defs>
<linearGradient id="paint0_linear" x1="2249.2" y1="99.5851" x2="1134.46" y2="1215.48" gradientUnits="userSpaceOnUse">
<stop stop-color="#5B86E5"/>
<stop offset="1" stop-color="#36D1DC"/>
</linearGradient>
</defs>
</svg>
